<mxfile host="app.diagrams.net" modified="2024-04-08T09:13:41.539Z" agent="Mozilla/5.0 (Windows NT 10.0; Win64; x64) AppleWebKit/537.36 (KHTML, like Gecko) Chrome/122.0.0.0 Safari/537.36" version="24.2.2" etag="OZ95yaTbcixl3HyjQWF9" type="github">
  <diagram name="第 1 页" id="-DUCccSbEhLPuWcFMruR">
    <mxGraphModel>
      <root>
        <mxCell id="0" />
        <mxCell id="1" parent="0" />
      </root>
    </mxGraphModel>
  </diagram>
</mxfile>
